<svg viewBox="0 0 400 300" role="img" aria-label="Knauf TN samourezni vijci 3,5 × 25 mm" xmlns="http://www.w3.org/2000/svg"><defs><radialGradient id="gc-shadow">
     <stop offset="0" stop-color="#1B1E22" stop-opacity="0.30"/>
     <stop offset="0.55" stop-color="#1B1E22" stop-opacity="0.13"/>
     <stop offset="1" stop-color="#1B1E22" stop-opacity="0"/>
   </radialGradient><linearGradient id="gc-side-C6BFB0" x1="0" y1="0" x2="1" y2="1">
       <stop offset="0" stop-color="#bcb5a7"/>
       <stop offset="1" stop-color="#969186"/>
     </linearGradient><linearGradient id="gc-front-DAD4C7" x1="0" y1="0" x2="0" y2="1">
       <stop offset="0" stop-color="#dcd6ca"/>
       <stop offset="1" stop-color="#b7b2a7"/>
     </linearGradient><linearGradient id="gc-top-EDE7DA" x1="0" y1="0" x2="1" y2="1">
       <stop offset="0" stop-color="#f0ebe1"/>
       <stop offset="1" stop-color="#e8e2d6"/>
     </linearGradient><linearGradient id="gc-top-8DB596" x1="0" y1="0" x2="1" y2="1">
       <stop offset="0" stop-color="#a2c2a9"/>
       <stop offset="1" stop-color="#8ab193"/>
     </linearGradient><linearGradient id="gc-top-D9867A" x1="0" y1="0" x2="1" y2="1">
       <stop offset="0" stop-color="#e09c92"/>
       <stop offset="1" stop-color="#d58378"/>
     </linearGradient><linearGradient id="gc-top-7F9DC2" x1="0" y1="0" x2="1" y2="1">
       <stop offset="0" stop-color="#96afcd"/>
       <stop offset="1" stop-color="#7c9abe"/>
     </linearGradient><linearGradient id="gc-side-8C949C" x1="0" y1="0" x2="1" y2="1">
       <stop offset="0" stop-color="#858d94"/>
       <stop offset="1" stop-color="#6a7077"/>
     </linearGradient><linearGradient id="gc-sheen-AEB5BC" x1="0" y1="0" x2="1" y2="0.35">
       <stop offset="0" stop-color="#9da3a9"/>
       <stop offset="0.28" stop-color="#c8cdd1"/>
       <stop offset="0.5" stop-color="#AEB5BC"/>
       <stop offset="0.72" stop-color="#bdc2c8"/>
       <stop offset="1" stop-color="#92989e"/>
     </linearGradient><linearGradient id="gc-sheen-CDD2D7" x1="0" y1="0" x2="1" y2="0.35">
       <stop offset="0" stop-color="#b9bdc2"/>
       <stop offset="0.28" stop-color="#dde0e4"/>
       <stop offset="0.5" stop-color="#CDD2D7"/>
       <stop offset="0.72" stop-color="#d6dade"/>
       <stop offset="1" stop-color="#acb0b5"/>
     </linearGradient><linearGradient id="gc-side-A98049" x1="0" y1="0" x2="1" y2="1">
       <stop offset="0" stop-color="#a17a45"/>
       <stop offset="1" stop-color="#806137"/>
     </linearGradient><linearGradient id="gc-front-C09657" x1="0" y1="0" x2="0" y2="1">
       <stop offset="0" stop-color="#c39b5f"/>
       <stop offset="1" stop-color="#a17e49"/>
     </linearGradient><linearGradient id="gc-top-D6B274" x1="0" y1="0" x2="1" y2="1">
       <stop offset="0" stop-color="#ddc08d"/>
       <stop offset="1" stop-color="#d2ae72"/>
     </linearGradient><linearGradient id="gc-front-D9AE36" x1="0" y1="0" x2="0" y2="1">
       <stop offset="0" stop-color="#dbb240"/>
       <stop offset="1" stop-color="#b6922d"/>
     </linearGradient><radialGradient id="gc-dome-E8C24E" cx="0.36" cy="0.3" r="0.82">
       <stop offset="0" stop-color="#eed380"/>
       <stop offset="0.55" stop-color="#E8C24E"/>
       <stop offset="1" stop-color="#b5973d"/>
     </radialGradient><linearGradient id="gc-side-DAD5C9" x1="0" y1="0" x2="1" y2="1">
       <stop offset="0" stop-color="#cfcabf"/>
       <stop offset="1" stop-color="#a6a299"/>
     </linearGradient><linearGradient id="gc-front-ECE8DF" x1="0" y1="0" x2="0" y2="1">
       <stop offset="0" stop-color="#ede9e1"/>
       <stop offset="1" stop-color="#c6c3bb"/>
     </linearGradient><linearGradient id="gc-top-FBFAF6" x1="0" y1="0" x2="1" y2="1">
       <stop offset="0" stop-color="#fcfbf8"/>
       <stop offset="1" stop-color="#f6f5f1"/>
     </linearGradient><linearGradient id="gc-side-61656B" x1="0" y1="0" x2="1" y2="1">
       <stop offset="0" stop-color="#5c6066"/>
       <stop offset="1" stop-color="#4a4d51"/>
     </linearGradient><linearGradient id="gc-front-767A80" x1="0" y1="0" x2="0" y2="1">
       <stop offset="0" stop-color="#7d8186"/>
       <stop offset="1" stop-color="#63666c"/>
     </linearGradient><linearGradient id="gc-top-8E9298" x1="0" y1="0" x2="1" y2="1">
       <stop offset="0" stop-color="#a2a6ab"/>
       <stop offset="1" stop-color="#8b8f95"/>
     </linearGradient><linearGradient id="gc-side-77A0C0" x1="0" y1="0" x2="1" y2="1">
       <stop offset="0" stop-color="#7198b6"/>
       <stop offset="1" stop-color="#5a7a92"/>
     </linearGradient><linearGradient id="gc-front-8DB5D4" x1="0" y1="0" x2="0" y2="1">
       <stop offset="0" stop-color="#93b9d6"/>
       <stop offset="1" stop-color="#7698b2"/>
     </linearGradient><linearGradient id="gc-top-AACDE5" x1="0" y1="0" x2="1" y2="1">
       <stop offset="0" stop-color="#b9d6ea"/>
       <stop offset="1" stop-color="#a7c9e0"/>
     </linearGradient><linearGradient id="gc-sheen-F4F1EA" x1="0" y1="0" x2="1" y2="0.35">
       <stop offset="0" stop-color="#dcd9d3"/>
       <stop offset="0.28" stop-color="#f8f5f1"/>
       <stop offset="0.5" stop-color="#F4F1EA"/>
       <stop offset="0.72" stop-color="#f6f4ee"/>
       <stop offset="1" stop-color="#cdcac5"/>
     </linearGradient><linearGradient id="gc-sheen-BDB7AA" x1="0" y1="0" x2="1" y2="0.35">
       <stop offset="0" stop-color="#aaa599"/>
       <stop offset="0.28" stop-color="#d2cec5"/>
       <stop offset="0.5" stop-color="#BDB7AA"/>
       <stop offset="0.72" stop-color="#c9c4b9"/>
       <stop offset="1" stop-color="#9f9a8f"/>
     </linearGradient><linearGradient id="gc-side-B08658" x1="0" y1="0" x2="1" y2="1">
       <stop offset="0" stop-color="#a77f54"/>
       <stop offset="1" stop-color="#866643"/>
     </linearGradient><linearGradient id="gc-front-C99F72" x1="0" y1="0" x2="0" y2="1">
       <stop offset="0" stop-color="#cca479"/>
       <stop offset="1" stop-color="#a98660"/>
     </linearGradient><linearGradient id="gc-top-DDBB90" x1="0" y1="0" x2="1" y2="1">
       <stop offset="0" stop-color="#e3c7a4"/>
       <stop offset="1" stop-color="#d9b78d"/>
     </linearGradient><linearGradient id="gc-front-DAD3C4" x1="0" y1="0" x2="0" y2="1">
       <stop offset="0" stop-color="#dcd5c7"/>
       <stop offset="1" stop-color="#b7b1a5"/>
     </linearGradient><radialGradient id="gc-dome-F3F0E8" cx="0.36" cy="0.3" r="0.82">
       <stop offset="0" stop-color="#f6f4ee"/>
       <stop offset="0.55" stop-color="#F3F0E8"/>
       <stop offset="1" stop-color="#bebbb5"/>
     </radialGradient><radialGradient id="gc-dome-B8946A" cx="0.36" cy="0.3" r="0.82">
       <stop offset="0" stop-color="#ccb294"/>
       <stop offset="0.55" stop-color="#B8946A"/>
       <stop offset="1" stop-color="#907353"/>
     </radialGradient><linearGradient id="gc-side-8C6C48" x1="0" y1="0" x2="1" y2="1">
       <stop offset="0" stop-color="#856744"/>
       <stop offset="1" stop-color="#6a5237"/>
     </linearGradient><linearGradient id="gc-front-C8B38D" x1="0" y1="0" x2="0" y2="1">
       <stop offset="0" stop-color="#cbb793"/>
       <stop offset="1" stop-color="#a89676"/>
     </linearGradient><radialGradient id="gc-dome-E3D2B2" cx="0.36" cy="0.3" r="0.82">
       <stop offset="0" stop-color="#ebdfc8"/>
       <stop offset="0.55" stop-color="#E3D2B2"/>
       <stop offset="1" stop-color="#b1a48b"/>
     </radialGradient><linearGradient id="gc-front-575C60" x1="0" y1="0" x2="0" y2="1">
       <stop offset="0" stop-color="#5f6468"/>
       <stop offset="1" stop-color="#494d51"/>
     </linearGradient><radialGradient id="gc-dome-707579" cx="0.36" cy="0.3" r="0.82">
       <stop offset="0" stop-color="#989c9f"/>
       <stop offset="0.55" stop-color="#707579"/>
       <stop offset="1" stop-color="#575b5e"/>
     </radialGradient><linearGradient id="gc-sheen-C3C9CF" x1="0" y1="0" x2="1" y2="0.35">
       <stop offset="0" stop-color="#b0b5ba"/>
       <stop offset="0.28" stop-color="#d6dade"/>
       <stop offset="0.5" stop-color="#C3C9CF"/>
       <stop offset="0.72" stop-color="#ced3d8"/>
       <stop offset="1" stop-color="#a4a9ae"/>
     </linearGradient><linearGradient id="gc-front-DCE0E4" x1="0" y1="0" x2="0" y2="1">
       <stop offset="0" stop-color="#dee2e5"/>
       <stop offset="1" stop-color="#b9bcc0"/>
     </linearGradient></defs><ellipse cx="212" cy="250" rx="168.00000000000003" ry="24" fill="url(#gc-shadow)" transform="rotate(0 212 250)"/><polygon points="256.0,132.0 318.0,92.0 318.0,198.0 256.0,238.0" fill="url(#gc-side-B08658)" /><polygon points="104.0,132.0 256.0,132.0 256.0,238.0 104.0,238.0" fill="url(#gc-front-C99F72)" /><polygon points="104.0,132.0 256.0,132.0 318.0,92.0 166.0,92.0" fill="url(#gc-top-DDBB90)" /><polygon points="172.0,132.0 192.0,132.0 254.0,92.0 234.0,92.0" fill="#EAD5B2" opacity="0.85"/><rect x="122" y="158" width="116" height="56" fill="#F8F4EC"/><rect x="122" y="158" width="6" height="56" fill="#2F5FA7"/><text x="184" y="184" text-anchor="middle" font-family="Instrument Sans, system-ui, sans-serif" font-size="15" font-weight="700" fill="#1B1E22">TN 3,5 × 25</text><text x="184" y="202" text-anchor="middle" font-family="Instrument Sans, system-ui, sans-serif" font-size="12" fill="#5A6069">1000 kom</text><g transform="translate(92 262) rotate(-8)"><rect x="0" y="-2.5" width="42" height="5" fill="#59606A"/><line x1="6" y1="-3.5" x2="8" y2="3.5" stroke="#3F454D" stroke-width="1"/><line x1="11" y1="-3.5" x2="13" y2="3.5" stroke="#3F454D" stroke-width="1"/><line x1="16" y1="-3.5" x2="18" y2="3.5" stroke="#3F454D" stroke-width="1"/><line x1="21" y1="-3.5" x2="23" y2="3.5" stroke="#3F454D" stroke-width="1"/><line x1="26" y1="-3.5" x2="28" y2="3.5" stroke="#3F454D" stroke-width="1"/><line x1="31" y1="-3.5" x2="33" y2="3.5" stroke="#3F454D" stroke-width="1"/><line x1="36" y1="-3.5" x2="38" y2="3.5" stroke="#3F454D" stroke-width="1"/><circle cx="-2" cy="0" r="7" fill="#737B85"/><path d="M-6 0h8M-2 -4v8" stroke="#3F454D" stroke-width="1.4"/><polygon points="42,-2.5 50,0 42,2.5" fill="#59606A"/></g><g transform="translate(150 270) rotate(6)"><rect x="0" y="-2.5" width="42" height="5" fill="#59606A"/><line x1="6" y1="-3.5" x2="8" y2="3.5" stroke="#3F454D" stroke-width="1"/><line x1="11" y1="-3.5" x2="13" y2="3.5" stroke="#3F454D" stroke-width="1"/><line x1="16" y1="-3.5" x2="18" y2="3.5" stroke="#3F454D" stroke-width="1"/><line x1="21" y1="-3.5" x2="23" y2="3.5" stroke="#3F454D" stroke-width="1"/><line x1="26" y1="-3.5" x2="28" y2="3.5" stroke="#3F454D" stroke-width="1"/><line x1="31" y1="-3.5" x2="33" y2="3.5" stroke="#3F454D" stroke-width="1"/><line x1="36" y1="-3.5" x2="38" y2="3.5" stroke="#3F454D" stroke-width="1"/><circle cx="-2" cy="0" r="7" fill="#737B85"/><path d="M-6 0h8M-2 -4v8" stroke="#3F454D" stroke-width="1.4"/><polygon points="42,-2.5 50,0 42,2.5" fill="#59606A"/></g><g transform="translate(270 262) rotate(-20)"><rect x="0" y="-2.5" width="42" height="5" fill="#59606A"/><line x1="6" y1="-3.5" x2="8" y2="3.5" stroke="#3F454D" stroke-width="1"/><line x1="11" y1="-3.5" x2="13" y2="3.5" stroke="#3F454D" stroke-width="1"/><line x1="16" y1="-3.5" x2="18" y2="3.5" stroke="#3F454D" stroke-width="1"/><line x1="21" y1="-3.5" x2="23" y2="3.5" stroke="#3F454D" stroke-width="1"/><line x1="26" y1="-3.5" x2="28" y2="3.5" stroke="#3F454D" stroke-width="1"/><line x1="31" y1="-3.5" x2="33" y2="3.5" stroke="#3F454D" stroke-width="1"/><line x1="36" y1="-3.5" x2="38" y2="3.5" stroke="#3F454D" stroke-width="1"/><circle cx="-2" cy="0" r="7" fill="#737B85"/><path d="M-6 0h8M-2 -4v8" stroke="#3F454D" stroke-width="1.4"/><polygon points="42,-2.5 50,0 42,2.5" fill="#59606A"/></g></svg>